<svg width="653" height="628" viewBox="0 0 653 628" fill="none" xmlns="http://www.w3.org/2000/svg">
<style>
    path { color: #987776}
    @media (prefers-color-scheme: dark){
      path { color: white} 
    }
    </style>
<path d="M385.877 564.705V568.85H289.015V564.705C292.973 564.705 296.716 563.221 300.272 560.252C303.86 557.283 306.829 553.541 309.179 548.995C311.56 544.418 313.54 539.16 315.117 533.222C316.725 527.253 317.73 521.284 318.148 515.347V385.207L194.503 197.359C184.978 182.731 175.854 172.649 167.164 167.113C158.458 161.546 149.737 158.763 141 158.763V154H237.924V158.763C229.172 158.763 225.584 162.335 227.162 169.463C228.77 176.607 232.744 184.911 239.099 194.39L318.148 314.447L354.394 370.363L481.564 198.596C491.862 184.71 497.522 174.597 498.512 168.288C499.501 161.948 494.244 158.763 482.739 158.763V154H540.448V158.763C528.943 158.763 518.428 163.711 508.903 173.607C499.409 183.504 489.512 195.411 479.213 209.297L356.744 374.507V515.347C357.146 521.284 358.136 527.253 359.713 533.222C361.321 539.16 363.393 544.418 365.96 548.995C368.558 553.541 371.527 557.283 374.867 560.252C378.238 563.221 381.918 564.705 385.877 564.705Z" fill="currentColor"/>
<path d="M92.9269 482.644C94.3495 486.278 95.5556 489.386 97.504 492.819C99.4369 496.252 101.772 500.705 104.231 503.937C106.689 507.169 109.55 511.422 112.21 515.179L112.009 514.653C114.869 518.921 118.24 522.973 121.627 527.039C122.957 528.911 124.797 530.581 126.127 532.452L131.152 537.663C132.992 539.333 134.322 541.204 135.977 542.364C137.817 544.034 139.672 545.704 141.513 547.374C145.734 550.497 150.141 554.162 154.363 557.301C158.569 560.44 162.991 564.09 167.398 567.739L173.986 572.347L180.047 577.156C184.47 580.805 189.402 584.269 194.846 587.516C197.211 588.985 199.376 589.929 201.742 591.398L208.438 594.769C212.969 597.181 217.298 599.068 221.829 601.495C223.994 602.439 226.159 603.382 228.324 604.341C230.488 605.284 233.164 606.026 235.328 606.985C239.457 608.361 243.895 609.01 248.024 610.387C250.498 610.619 253.699 611.16 256.188 611.392C258.663 611.624 261.353 612.366 263.827 612.583C268.992 613.557 274.667 614.33 280.033 615.83L286.435 616.912L293.563 618.319C296.238 619.062 298.728 619.294 301.403 620.036L308.532 621.443C310.496 621.86 312.243 621.783 314.207 622.201C316.171 622.634 317.933 622.556 319.681 622.464C323.933 622.603 328.17 622.742 332.407 622.881L333.644 622.989C336.644 623.02 339.644 623.036 342.644 623.067C345.644 623.082 348.427 622.587 351.427 622.618L359.499 621.86C362.298 621.366 365.298 621.381 368.096 620.902C370.895 620.407 373.168 620.113 375.967 619.618C377.514 619 379.276 618.922 381.039 618.83C381.565 618.629 382.075 618.428 382.802 618.737C383.513 619.062 384.039 618.861 384.549 618.644C386.838 618.366 389.637 617.871 391.709 617.051C393.781 616.247 395.745 616.68 397.817 615.861C398.327 615.66 398.853 615.459 399.379 615.258C400.415 614.856 401.652 614.964 402.688 614.562L403.198 614.361L403.724 614.16C403.724 614.16 404.25 613.959 404.76 613.758C405.286 613.541 405.286 613.541 405.796 613.34L405.286 613.541C405.796 613.34 407.033 613.464 407.559 613.263C408.069 613.062 409.322 613.17 410.033 613.479C411.796 613.402 412.724 614.237 413.327 615.783L413.528 616.309C415.089 615.691 416.326 615.814 417.888 615.196L417.363 615.412C419.125 615.32 421.197 614.5 423.27 613.696C425.342 612.892 427.414 612.072 429.501 611.268C433.645 609.644 437.79 608.021 441.949 606.413C448.691 603.768 454.907 601.341 461.448 598.186C467.989 595.032 474.53 591.893 481.071 588.738C488.447 584.656 495.823 580.589 502.998 575.996C506.431 574.048 509.648 571.605 513.606 569.455C517.549 567.321 520.781 564.863 523.998 562.404L523.487 562.605C528.064 559.033 532.317 556.172 536.909 552.585C541.487 549.013 545.863 544.9 550.239 540.802L550.749 540.601L552.419 538.761L552.744 538.034C553.579 537.106 554.414 536.194 555.759 535.065C557.429 533.209 559.625 531.168 561.295 529.313C568.485 521.72 574.965 513.818 581.954 505.7C584.784 502.205 587.088 498.912 589.902 495.432C591.062 493.778 592.206 492.139 593.35 490.484C594.51 488.845 595.979 486.479 597.448 484.113C601.206 478.454 604.268 472.485 607.824 466.315C609.618 463.222 611.396 460.13 613.174 457.053C614.968 453.96 616.221 451.068 617.813 447.465C621.277 439.533 624.555 431.09 627.524 423.358C628.901 419.229 630.478 415.626 631.854 411.498C633.23 407.369 634.607 403.24 635.998 399.127L636.617 397.673L639.926 386.231C640.776 382.303 641.642 378.375 642.508 374.463L644.163 361.86L644.982 350.186C645.632 345.732 646.297 341.294 646.436 337.057L647.163 323.62C647.395 321.146 647.101 318.857 647.116 315.873C647.147 312.873 646.962 309.347 646.467 306.548C646.204 301.275 645.941 296.002 645.153 290.93L645.354 291.44C644.797 283.894 643.714 276.549 642.446 268.679C641.163 260.808 639.771 254.174 638.179 247.03L638.38 247.54C637.483 243.705 636.787 240.396 635.364 236.762C633.942 233.128 633.045 229.293 632.148 225.474L628.622 214.897C627.2 211.263 626.504 207.939 625.081 204.32L625.282 204.83C623.458 200.161 621.633 195.491 619.607 190.31C617.597 185.115 615.571 179.935 613.02 174.955C610.468 169.961 608.443 164.781 605.907 159.801C604.886 157.203 603.355 154.807 602.35 152.209C601.33 149.626 599.799 147.23 598.995 145.158C596.66 140.689 593.799 136.421 590.938 132.168C588.077 127.901 585.217 123.633 582.155 118.854L582.356 119.38C578.769 114.788 574.98 109.7 571.408 105.123C567.821 100.53 563.723 96.1543 559.826 92.304L560.027 92.8143C554.275 87.2939 548.337 81.2477 542.584 75.7119C539.816 73.2068 536.322 70.3925 533.554 67.8874C530.786 65.3824 527.492 63.0783 524.724 60.5733C521.956 58.0682 519.59 56.5992 517.225 55.1457C514.843 53.6766 512.276 51.6819 509.91 50.2129C507.545 48.7438 504.266 46.4553 501.174 44.6615C498.081 42.8832 495.514 40.8885 493.148 39.4349C490.782 37.9659 488.416 36.4969 485.741 35.7547C483.051 34.997 480.484 33.0177 478.319 32.0744C473.061 29.3374 468.02 27.1261 462.253 24.5902C456.485 22.0696 452.356 20.6934 446.789 18.6832C441.222 16.6575 435.857 15.173 430.491 13.6885C424.398 11.8793 418.321 10.0701 412.12 9.49796C406.43 8.7248 401.281 7.75061 395.791 7.5032L387.116 6.6991C384.658 3.48274 382.184 3.25079 379.184 3.23532C373.184 3.17347 367.184 3.12708 360.875 3.80747C355.076 4.27137 349.494 5.26102 343.896 6.25067C338.299 7.24032 332.716 8.21451 327.32 9.72991C321.938 11.2299 317.578 12.3432 312.707 13.6421C307.836 14.941 303.491 16.0544 299.13 17.1523C289.991 21.3119 281.703 24.5592 273.399 27.7911C270.291 29.0127 267.183 30.2188 264.059 31.4404C260.951 32.662 257.317 34.0692 254.209 35.2908C247.977 37.7185 241.962 40.672 235.947 43.61C231.478 45.9604 227.21 48.8212 222.942 51.6819C218.69 54.5426 214.221 56.8775 210.154 60.264C204.232 64.9649 197.567 69.3564 191.846 74.583C185.908 79.2993 180.496 83.7992 175.284 88.8247C170.073 93.8503 165.063 99.3862 160.764 105.247C158.476 108.54 156.172 111.834 153.868 115.128L145.92 125.395C143.616 128.689 140.801 132.184 138.497 135.462C136.193 138.756 134.09 142.56 131.786 145.853C128.864 150.585 126.127 155.843 123.714 160.373C121.302 164.904 118.565 170.146 115.828 175.404C115.194 176.842 114.56 178.295 114.143 180.244C113.509 181.697 113.076 183.661 112.442 185.099L110.741 189.939L110.122 191.377C108.73 195.506 107.354 199.635 105.978 203.764C104.602 207.892 102.7 212.206 101.323 216.335C99.839 221.701 98.0297 227.794 96.5298 233.159L93.6691 242.638C92.9269 245.329 92.3702 248.53 91.1176 251.406C89.8497 254.298 89.8187 257.298 89.2775 260.498L86.9271 269.776C85.1179 275.869 84.0355 282.271 82.7365 288.162C81.886 292.074 81.0201 296.002 80.3706 300.44L77.9893 312.733C77.6491 316.445 76.7832 320.372 76.443 324.084L74.9121 335.449C73.706 343.088 73.7523 350.851 73.072 358.288L72.2215 372.963C72.1906 375.963 72.1751 378.963 72.3452 382.488L72.4844 391.998C72.6545 395.509 72.6235 398.508 72.8091 402.034C72.9019 403.781 72.7782 405.034 73.3967 406.58L73.4585 411.343L74.3245 418.178C74.8193 420.977 75.1131 423.25 74.8812 425.724L75.9636 433.084C76.2574 435.358 76.5512 437.631 77.5563 440.228C79.0717 445.61 80.3706 450.481 81.8706 455.877C82.3654 458.676 83.185 460.748 84.1901 463.346C85.2107 465.928 85.7055 468.727 86.7106 471.325L87.1126 472.361C89.896 474.866 91.5042 479.01 92.9269 482.644ZM83.2932 473.258C82.0716 470.15 81.051 467.552 80.3552 464.243C79.3501 461.645 78.8552 458.846 77.8347 456.264L75.6389 447.558L73.6441 439.363L72.5307 435.017C71.9277 433.456 72.0359 432.218 71.9586 430.456L70.9844 421.874C70.4896 419.075 70.3195 415.549 69.8247 412.766L69.4381 408.73C69.2371 408.204 69.5618 407.477 69.3608 406.967L69.067 404.694C68.8814 401.168 68.7113 397.658 68.7268 394.658L68.6031 385.133C68.433 381.623 68.2474 378.097 68.0773 374.587C67.9845 372.824 68.0928 371.587 68 369.824L68.2629 364.35C68.3093 358.35 68.8814 352.149 68.9278 346.15C68.9433 343.165 69.4999 339.964 70.0412 336.763L71.1545 327.362L72.2524 317.96C72.2833 314.96 72.8246 311.759 73.5668 309.069L74.8812 300.193L77.3553 289.662C78.6388 283.786 79.7367 277.369 81.2211 272.019L83.5716 262.725C84.1128 259.524 85.3808 256.633 85.922 253.432C86.4632 250.231 87.2209 247.556 88.2724 244.154C89.3394 240.752 90.0816 238.061 90.8238 235.386C92.6331 229.293 94.133 223.928 95.9422 217.851L97.8596 210.521C98.6019 207.83 99.5606 205.666 100.303 202.99C101.988 198.15 103.689 193.295 105.39 188.455L105.066 189.166L105.7 187.728C106.241 184.527 107.509 181.636 108.576 178.234C109.318 175.558 110.586 172.667 111.838 169.791C113.106 166.899 114.575 164.533 116.354 161.44L120.359 153.307C123.096 148.065 126.343 142.606 129.281 137.874C132.204 133.143 136.178 128.009 139.626 123.076C143.09 118.128 147.574 112.793 151.023 107.86C153.017 105.293 154.486 102.927 156.466 100.36C158.46 97.778 160.641 95.7368 162.635 93.1699C164.615 90.603 166.811 88.5464 168.991 86.4898C171.187 84.4486 173.367 82.392 175.563 80.3508C179.939 76.2531 184.516 72.6656 189.093 69.0781C193.67 65.5061 199.283 61.5165 204.185 57.2177C206.582 55.6869 209.288 53.4292 212.195 51.6973C215.102 49.9654 217.7 48.9449 220.082 47.414C225.386 44.1512 230.164 41.0895 235.669 38.337C241.174 35.6 246.679 32.8476 251.859 30.8219C257.054 28.7962 263.271 26.3684 268.977 24.1417C274.683 21.915 279.352 20.0903 284.749 18.5749C290.13 17.075 296.362 14.6472 301.759 13.1318C307.14 11.6319 314.083 9.51343 320.191 8.32275C326.315 7.13207 332.732 5.23009 338.84 4.03942C344.963 2.84874 351.582 1.45704 357.906 0.776657C360.69 0.281831 364.215 0.111736 367.215 0.127198C370.215 0.158127 373.725 -0.0274371 376.725 0.00349153C379.725 0.0189538 382.725 0.0498844 385.926 0.591097C389.127 1.13231 392.126 1.16324 395.327 1.70446C401.528 2.2766 407.203 3.04976 413.095 4.33322C418.77 5.10639 424.661 6.38984 430.027 7.88978C436.104 9.69899 441.671 11.7092 447.763 13.5184C453.33 15.5287 458.897 17.5389 464.464 19.5491L473.123 23.3376L481.767 27.1261C484.659 28.3941 487.535 29.6621 490.117 31.6414C492.994 32.9094 495.56 34.9042 498.653 36.6825C501.746 38.4607 503.586 40.1308 506.679 41.9245L514.704 47.1511C519.436 50.0892 524.369 53.5375 528.977 57.7126C533.6 61.8877 538.533 65.3514 543.157 69.5111C545.723 71.5058 547.78 73.6862 550.146 75.1552C552.512 76.6242 554.754 79.3303 556.811 81.5261C561.434 85.7011 565.532 90.0773 569.831 94.9637C574.13 99.8655 577.717 104.443 581.506 109.546C585.279 114.648 588.866 119.226 592.655 124.313C596.443 129.416 598.979 134.395 602.242 139.699C605.505 145.003 608.257 150.508 611.211 156.523L618.927 173.239C620.226 178.11 622.978 183.615 625.205 189.321C627.432 195.027 629.457 200.207 631.684 205.913C633.911 211.619 635.627 217.526 637.545 223.959C639.447 230.391 640.962 235.773 642.663 241.68C644.379 247.587 645.57 253.71 646.761 259.818C647.951 265.926 648.941 271.524 649.405 277.307C649.869 283.106 651.06 289.214 651.214 295.739C651.369 302.249 652.034 308.558 652.513 314.357C652.977 320.156 652.405 326.357 652.049 333.068C652.018 336.068 652.003 339.067 651.245 341.758C650.503 344.433 650.487 347.433 649.931 350.634C648.848 357.036 648.075 362.711 647.518 368.912C646.745 374.602 645.446 380.478 644.163 386.37C642.787 390.483 642.122 394.936 640.745 399.05C638.936 405.142 637.127 411.235 635.117 416.802C633.107 422.368 630.586 428.136 628.576 433.703C626.566 439.27 624.231 445.563 620.983 451.006C619.715 453.898 618.447 456.774 616.669 459.867C614.891 462.96 613.623 465.836 611.644 468.403C608.381 473.861 605.659 479.119 602.721 483.85C600.943 486.928 598.948 489.51 597.17 492.587C595.701 494.953 593.706 497.52 592.052 499.376C588.077 504.509 584.614 509.442 580.439 514.066C576.263 518.689 571.779 524.024 567.604 528.648C563.754 532.544 560.089 536.951 556.037 540.338L555.512 540.539L554.986 540.74L553.316 542.596L552.806 542.797C551.971 543.709 551.445 543.925 550.61 544.838C549.775 545.766 548.43 546.894 547.069 548.023C544.363 550.265 542.182 552.322 539.476 554.58C534.899 558.152 529.796 561.94 524.693 565.729C521.987 567.971 519.59 569.502 516.683 571.249C513.776 572.981 511.395 574.512 508.472 576.244C503.184 579.506 497.88 582.769 492.576 586.032C487.272 589.31 481.767 592.047 476.788 594.599C471.809 597.135 465.268 600.289 459.036 602.717C455.928 603.939 453.021 605.67 449.387 607.093C445.753 608.5 443.681 609.32 440.573 610.526L431.743 613.974C428.635 615.196 425.527 616.402 422.203 617.098C418.893 617.794 416.296 618.814 412.986 619.51C410.713 619.804 407.914 620.299 405.641 620.577C404.389 620.469 403.476 619.634 403.059 618.598C402.858 618.072 402.657 617.562 403.183 617.361L402.657 617.562L402.147 617.763C401.621 617.964 400.384 617.855 399.858 618.057L399.348 618.258C398.312 618.66 397.075 618.551 395.513 619.154C393.951 619.757 392.714 619.649 391.678 620.051C390.642 620.453 388.879 620.546 387.333 621.149C385.57 621.242 384.534 621.644 382.771 621.737C381.735 622.139 380.498 622.031 379.462 622.433C377.699 622.525 375.627 623.33 373.354 623.623C371.065 623.917 367.756 624.613 364.957 625.108C362.159 625.603 359.885 625.896 357.411 625.664L356.886 625.865C352.85 626.252 349.54 626.948 345.304 626.809C343.015 627.103 340.541 626.871 338.268 627.164C335.979 627.458 333.505 627.226 331.031 626.994L328.541 626.778C323.067 626.515 317.794 626.793 312.831 626.329C310.356 626.113 307.867 625.881 305.192 625.139C302.501 624.381 299.3 623.84 296.625 623.098C291.46 622.123 286.095 620.639 280.419 619.866C274.729 619.093 268.853 617.809 262.961 616.51C262.451 616.711 261.724 616.402 260.998 616.077L261.523 615.876C258.322 615.335 255.121 614.794 252.122 614.763C249.122 614.747 245.72 613.68 242.519 613.139C239.318 612.598 236.643 611.856 233.751 610.588C230.86 609.32 228.385 609.088 225.494 607.835C220.453 605.609 216.123 603.722 211.391 600.784C206.134 598.047 200.366 595.526 195.634 592.588C190.191 589.341 184.733 586.094 179.8 582.63C177.434 581.161 175.377 578.981 173.011 577.512C170.645 576.043 168.805 574.373 166.223 572.393C161.29 568.93 157.084 565.791 152.662 562.141C150.095 560.162 147.528 558.167 145.162 556.698L139.301 552.415C137.461 550.745 134.879 548.765 133.039 547.095C131.183 545.425 129.142 543.23 127.085 541.049L121.859 535.312C120.019 533.642 118.488 531.245 116.957 528.864C113.369 524.287 109.782 519.694 106.21 515.117C102.622 510.54 99.5606 505.762 96.4989 500.984C95.169 499.113 94.1639 496.515 92.8341 494.644C91.5042 492.773 90.4836 490.175 89.4785 487.577C87.8549 483.433 85.5199 478.964 83.8963 474.82L83.2932 473.258Z" fill="currentColor"/>
<path d="M363.063 617.512C366.96 617.512 370.3 617.512 374.197 616.956C378.093 616.399 383.103 615.842 387.016 614.729C390.912 613.616 395.923 612.502 400.376 611.389H399.819C404.829 610.275 409.84 608.605 414.85 606.935C417.076 606.379 419.303 605.265 421.53 604.709L428.21 601.925C430.437 600.812 432.663 600.255 434.349 599.126C436.576 598.013 438.802 596.9 441.029 595.786C445.482 593.003 450.493 590.22 454.946 587.436C459.399 584.653 464.41 581.869 469.42 579.086L476.1 574.633L482.78 570.736C487.806 567.952 492.816 564.612 497.826 560.716C500.052 559.046 501.723 557.376 503.949 555.705L509.516 550.695C513.413 547.34 516.753 544 520.65 540.66C522.32 538.99 523.99 537.32 525.66 535.65C527.33 533.98 529 531.753 530.67 530.083C533.453 526.743 535.68 522.846 538.479 519.506C539.592 517.279 541.262 514.496 542.376 512.269C543.489 510.042 545.159 507.816 546.272 505.589C549.056 501.135 551.839 496.11 555.179 491.656L558.519 486.09L562.416 479.966C564.086 477.739 565.199 475.513 566.869 473.286L570.766 467.163C571.88 465.493 572.436 463.823 573.55 462.152C574.663 460.482 575.22 458.812 575.776 457.142C577.446 453.246 579.116 449.349 580.786 445.437L581.343 444.323C582.456 441.54 583.57 438.756 584.683 435.973C585.797 433.19 586.353 430.406 587.482 427.623L589.709 419.829C590.265 417.046 591.379 414.263 591.935 411.479C592.492 408.696 593.049 406.469 593.605 403.686C593.605 402.016 594.162 400.346 594.719 398.676C594.719 398.119 594.719 397.562 595.276 396.99C595.832 396.433 595.832 395.877 595.832 395.32C596.389 393.093 596.946 390.31 596.946 388.083C596.946 385.857 598.059 384.186 598.059 381.96C598.059 381.403 598.059 380.846 598.059 380.29C598.059 379.176 598.616 378.063 598.616 376.95V376.393V375.836C598.616 375.836 598.616 375.28 598.616 374.723C598.616 374.166 598.616 374.166 598.616 373.61V374.166C598.616 373.61 599.172 372.496 599.172 371.94C599.172 371.383 599.729 370.269 600.286 369.713C600.842 368.043 601.956 367.486 603.626 367.486H604.182C604.182 365.816 604.739 364.703 604.739 363.033V363.589C605.296 361.919 605.296 359.693 605.296 357.466C605.296 355.239 605.296 353.012 605.296 350.786C605.296 346.317 605.296 341.863 605.296 337.41C605.296 330.173 605.296 323.493 604.739 316.256C604.182 309.019 603.626 301.782 603.069 294.53C601.956 286.18 600.842 277.83 599.172 269.48C598.616 265.583 597.502 261.686 596.946 257.233C596.389 252.779 595.276 248.883 594.162 244.97V245.542C592.492 239.96 591.379 234.95 589.709 229.383C588.039 223.817 585.797 218.25 583.57 212.683V212.126L582.456 209.9L581.9 209.343C581.343 208.229 580.786 207.116 580.23 205.446C579.116 203.219 578.003 200.436 576.89 198.209C572.436 188.73 567.426 179.823 562.416 170.36C560.189 166.463 557.963 163.123 555.736 159.226C554.622 157.556 553.509 155.886 552.396 154.216C551.282 152.546 549.612 150.319 547.942 148.093C544.046 142.51 539.592 137.5 535.123 131.934C532.897 129.15 530.67 126.367 528.443 123.583C526.216 120.8 523.99 118.573 521.206 115.79C515.083 109.666 508.403 103.543 502.279 97.9761C498.939 95.1927 496.156 92.3939 492.816 89.6105C489.476 86.8271 486.135 84.0437 482.78 81.2603L481.667 80.1469L472.203 72.9101C468.863 70.6834 465.523 68.4567 462.183 66.2299L451.049 60.1065L440.472 55.0964C436.576 52.8696 432.663 50.6429 428.767 48.9729L416.52 43.4061C414.293 42.2773 412.066 41.7206 409.283 40.6072C406.499 39.4939 403.159 38.3805 400.376 37.8238C395.366 36.1538 390.356 34.4838 385.346 33.3704H385.902C378.65 31.1437 371.413 29.4737 363.62 27.8036C355.826 26.1336 349.146 25.0202 341.909 23.9069H342.466C338.569 23.3502 335.229 22.7935 331.317 22.7935C327.42 22.7935 323.523 22.2368 319.627 21.6801L308.493 21.1235C304.596 21.1235 301.256 20.5668 297.359 20.5668H297.916C292.906 20.5668 287.896 20.5668 282.329 20.5668C276.747 20.5668 271.18 20.5668 265.613 21.1235C260.046 21.6801 254.48 21.6801 248.913 22.2368C246.129 22.2368 243.346 22.7935 240.563 22.7935C237.779 22.7935 234.996 23.3502 232.769 23.3502C227.744 23.9069 222.733 25.0202 217.723 26.1336C212.713 27.2469 207.703 28.3603 202.136 29.4737H202.693C197.126 31.1437 191.003 32.8137 185.436 34.4838C179.854 36.1538 174.287 38.3805 169.277 40.6072H169.834C162.597 43.9628 154.803 47.3028 147.566 50.6429C144.226 52.313 140.33 54.5397 136.989 56.2097C133.649 57.8798 130.309 60.1065 126.954 61.7765C123.614 63.4465 121.387 65.1166 119.16 66.7866C116.934 68.4567 114.15 70.1267 111.923 71.7967C109.697 73.4668 106.357 75.6935 103.573 77.9202C100.79 80.1469 98.0064 81.817 95.7797 83.487C93.553 85.157 91.3263 86.8271 89.6563 89.0538C87.9862 91.2805 85.2028 92.966 83.5328 94.636C79.0639 98.5328 75.1671 102.43 70.7137 106.883C66.2603 111.336 63.4769 114.676 59.5801 119.13C55.6834 123.583 52.3433 128.037 49.0032 132.49C45.1065 137.5 41.2097 142.51 38.4263 148.093C35.6429 153.103 32.8595 157.556 30.6328 162.566L26.7206 170.36C22.8238 171.473 21.7105 173.7 20.5971 176.483C18.3704 182.05 16.1437 187.617 14.4737 193.74C12.8036 199.323 11.6903 204.889 10.5769 210.456C9.46354 216.023 8.35019 221.59 7.79351 227.157C7.23683 232.723 6.68015 237.177 6.12347 242.187C5.56679 247.212 5.01011 251.666 4.45343 256.119C5.01011 266.14 5.01011 275.046 5.01011 283.953C5.01011 287.293 5.01011 290.633 5.01011 293.974C5.01011 297.329 5.01011 301.226 5.01011 304.566C5.01011 311.246 5.56679 317.926 6.12347 324.606C6.68015 329.616 7.79351 334.627 8.90687 339.637C10.0202 344.647 10.5769 349.672 12.2469 354.682C14.4737 361.919 16.1437 369.713 18.9271 376.95C21.1538 384.186 23.3805 390.867 26.1639 397.562C28.9628 404.242 32.3028 410.923 36.1996 417.046C38.4263 420.386 40.653 423.726 42.8798 427.066L49.5599 438.2C51.7866 441.54 54.0133 445.437 56.2401 448.792C58.4668 452.132 61.2502 455.472 63.4769 458.812C66.817 463.266 70.7137 467.719 74.0538 471.616C77.3939 475.513 81.3061 479.966 85.2028 484.42C86.3162 485.533 87.4295 486.646 89.0996 487.76C90.2129 488.873 91.883 489.986 92.9963 491.1L96.8931 494.44L98.0064 495.553C101.347 498.337 104.687 501.135 108.027 503.919C111.367 506.702 114.707 510.042 118.047 512.826C122.5 516.166 127.51 520.063 131.979 523.403L139.773 529.526C142 531.196 144.783 532.866 147.01 535.093C149.236 537.32 152.02 538.433 154.803 540.103L162.597 545.67C167.607 549.582 173.174 552.922 178.184 556.262C181.539 558.489 184.879 560.716 188.776 562.942L199.353 569.622C202.693 571.292 206.033 573.519 209.373 575.189L219.393 580.756C226.074 584.653 233.326 587.436 240.006 590.776L253.366 596.9C256.15 598.013 258.933 599.126 262.273 600.255L271.18 603.595C274.52 604.709 277.304 605.822 280.644 606.935C282.329 607.492 283.442 608.049 285.112 608.049L289.566 609.719L296.246 611.389C299.029 611.946 301.256 612.502 303.483 613.616L310.72 615.286C312.946 615.842 315.173 616.399 317.957 616.399C323.523 616.956 328.533 617.512 334.116 618.069C336.899 618.626 339.126 618.626 341.909 618.626C344.693 618.626 347.476 619.182 350.259 619.182H351.373C354.713 617.512 359.166 617.512 363.063 617.512ZM350.816 623.079C347.476 623.079 344.693 623.079 341.353 622.522C338.569 622.522 335.786 621.966 333.002 621.966L324.08 620.852L315.73 619.739L311.276 619.182C309.606 619.182 308.493 618.626 306.823 618.069L298.473 615.842C295.689 615.286 292.349 614.172 289.566 613.616L285.669 612.502C285.112 612.502 284.556 611.946 283.999 611.946L281.757 611.389C278.417 610.275 275.077 609.162 272.293 608.049L263.387 604.709C260.046 603.595 256.706 602.482 253.366 601.369C251.696 600.812 250.583 600.255 248.913 599.683L243.903 597.456C238.336 595.23 232.769 592.446 227.187 590.22C224.404 589.106 221.62 587.436 218.837 585.766L202.136 576.859C199.353 575.746 196.57 574.076 194.343 572.406L186.549 567.952L177.627 561.829C172.617 558.489 167.05 555.149 162.597 551.809L154.803 546.226C152.02 544.556 149.793 542.33 147.01 540.66C144.226 538.99 142 537.32 139.216 535.093C136.433 532.866 134.206 531.196 131.979 529.526C126.954 525.629 122.5 522.289 117.49 518.393L111.367 513.939C109.14 512.269 107.47 510.599 105.243 508.929C101.347 505.589 97.4498 502.249 93.553 498.909L94.1097 499.465L92.9963 498.337C90.2129 496.667 87.9862 494.44 85.2028 492.213C82.9761 490.543 80.7494 488.316 78.5072 486.09C76.2805 483.863 74.6105 481.636 72.3837 478.853L66.2603 472.173C62.3635 467.719 58.4668 462.709 55.1267 458.256C51.7866 453.802 48.4465 448.235 45.1065 443.21C41.7664 438.2 38.4263 432.076 35.0862 427.066C33.4162 424.283 31.7462 422.056 30.0761 419.273C28.3906 416.489 27.2773 413.706 25.6072 410.923C23.9372 408.139 22.8238 405.356 21.7105 402.572C20.5971 399.789 19.4838 396.99 18.3704 394.207C16.1437 388.64 14.4737 383.073 12.8036 377.506C11.1336 371.94 9.46354 365.259 7.23683 359.136C6.68015 356.353 5.56679 353.012 5.01011 349.672C4.45343 346.317 4.45343 343.533 3.89675 340.75C2.7834 334.627 1.67004 329.06 1.11336 322.936C0.556679 316.813 0 310.689 0 305.123C0 299.556 0 292.86 0 286.737C0 280.613 0 275.603 0.556679 270.036C1.11336 264.47 1.11336 257.789 1.67004 252.223C2.22672 246.656 2.7834 239.404 3.89675 233.28C5.01011 227.157 5.56679 220.476 6.68015 214.353C7.79351 208.229 8.90687 201.549 10.5769 195.426C11.1336 192.627 12.2469 189.287 13.3603 186.504C14.4737 183.72 15.587 180.38 16.7004 177.597C17.8137 174.813 18.9271 172.03 20.5971 169.246C22.2672 166.463 23.3805 163.68 25.0506 160.896C27.834 155.33 30.6328 150.319 33.9729 145.309C36.7563 140.284 40.0964 135.274 43.4364 130.82C47.3332 125.81 51.2299 121.357 55.1267 116.347C59.0234 111.893 62.9202 107.44 66.817 102.986L80.1927 89.6105C82.4194 87.3837 84.6462 85.157 87.4295 83.487C89.6563 81.2603 92.4397 79.5902 95.2231 77.3635C98.0064 75.1368 100.233 74.0234 103.017 71.7967L110.81 66.2299C115.264 62.8899 120.274 59.5498 125.84 56.7664C131.423 53.983 136.433 50.6429 142 47.8595C144.783 46.1895 147.566 45.0761 149.793 43.4061C152.02 41.7206 155.36 40.6072 158.143 39.4939C163.71 36.7105 169.277 34.4838 175.4 32.2571C181.539 30.0303 187.106 28.3603 193.23 26.6903C199.353 25.0202 204.92 23.3502 211.043 21.6801C217.167 20.0101 222.733 19.4534 228.857 18.3401C234.996 17.2267 241.119 16.67 247.8 16.1134L266.17 15C271.18 15.5567 277.304 15 283.442 15C289.566 15 295.133 15 301.256 15C307.38 15 313.503 15.5567 320.183 16.1134C326.863 16.67 332.43 17.2267 338.569 17.7834C344.693 18.3401 350.816 19.4534 356.94 20.5668C363.063 21.6801 368.63 22.7935 374.197 24.4635C379.763 26.1336 385.902 27.2469 392.026 29.4737C398.149 31.7004 404.273 33.3704 409.84 35.0404C415.406 36.7105 420.973 39.4939 427.097 42.2927C429.88 43.4061 432.663 44.5195 434.906 46.1895C437.132 47.8595 439.916 48.9729 442.699 50.6429C448.266 53.983 453.276 56.7664 458.843 59.5498C463.853 62.3332 468.863 65.6733 473.873 69.0133C477.213 71.7967 481.11 74.0234 484.45 76.8068C489.476 80.7036 494.486 84.6003 498.939 88.4971C503.393 92.3939 507.846 96.8627 512.299 100.76C516.753 104.656 521.763 109.11 525.66 114.12C527.886 116.347 530.113 118.573 532.34 121.357C534.567 124.14 536.809 126.367 538.479 129.15C542.376 134.16 546.272 138.614 549.612 143.067C551.839 145.866 553.509 148.649 555.736 151.433C557.406 153.659 559.076 156.443 560.189 158.67C563.529 164.236 566.869 169.246 569.653 174.813C572.436 180.38 575.776 186.504 578.56 192.07C580.786 197.096 583.57 202.106 585.24 207.116V207.673V208.229L586.353 210.456V211.013C586.925 212.126 586.925 212.683 587.482 213.796C588.039 214.91 588.595 216.58 589.152 218.25C590.265 221.59 591.379 224.373 592.492 227.713C594.162 233.28 595.832 239.404 597.502 245.542C598.616 248.883 599.172 251.666 599.729 255.006C600.286 258.346 600.842 261.129 601.399 264.47C602.512 270.593 603.626 276.716 604.739 282.84C605.852 288.963 606.409 295.087 606.966 300.669C607.522 306.236 608.079 313.473 608.079 320.153C608.079 323.493 608.636 326.833 608.636 330.73C608.636 334.627 608.636 336.853 608.636 340.193V349.672C608.636 353.012 608.636 356.353 608.079 359.693C607.522 363.033 607.522 365.816 606.966 369.156C606.409 371.383 605.852 374.166 605.296 376.393C604.739 377.506 603.626 378.063 602.512 378.063C601.956 378.063 601.399 378.063 601.399 377.506V378.62C601.399 379.176 600.842 380.29 600.842 380.846V381.403C600.842 382.516 600.286 383.63 600.286 385.3C600.286 386.97 599.729 388.083 599.729 389.197C599.729 390.31 599.172 391.98 599.172 393.65C598.616 395.32 598.616 396.433 598.059 398.119C598.059 399.232 597.502 400.346 597.502 401.459C596.946 403.129 596.946 405.356 596.389 407.582C595.832 409.809 595.276 413.149 594.719 415.933C594.162 418.716 593.605 420.943 592.492 423.169V423.726C591.379 427.623 590.822 430.963 589.152 434.86C588.595 437.086 587.482 439.313 586.925 441.54C586.353 443.767 585.24 445.993 584.126 448.235L583.013 450.462C580.786 455.472 579.116 460.482 576.89 464.936C575.776 467.163 574.663 469.389 572.993 471.616C571.323 473.843 569.653 476.626 567.983 478.853C565.199 483.306 561.859 487.76 559.076 492.77C556.293 497.78 552.952 502.805 549.612 507.816C549.612 508.372 549.056 508.929 548.499 509.486V508.929C546.829 511.712 545.159 514.496 544.046 517.279C542.932 520.063 540.706 522.846 539.035 525.629C537.365 528.413 535.695 530.639 533.453 532.866C531.226 535.093 530.113 537.32 527.886 539.546C523.99 543.443 520.65 546.783 516.196 550.139C511.743 554.035 507.289 558.489 502.836 561.829C497.826 565.726 492.816 569.622 487.806 572.963C485.579 574.633 482.78 575.746 480.553 577.416C478.327 579.086 476.1 580.199 473.316 581.869C468.306 585.209 463.853 587.993 458.843 590.776C456.059 592.446 453.276 594.116 451.049 595.786L444.926 599.683C442.699 600.812 439.916 602.482 437.689 603.595C435.462 604.709 432.663 605.822 429.88 606.935L422.643 609.719C420.416 610.832 417.633 611.389 414.85 611.946C409.283 613.616 403.716 615.286 398.149 616.956C392.582 618.626 387.016 619.739 381.433 620.852C379.207 621.409 376.423 621.409 374.197 621.966C371.97 622.522 369.186 622.522 366.403 622.522C361.95 622.522 356.94 623.079 352.486 623.079H350.816Z" fill="currentColor"/>
</svg>
